<?xml version="1.0" standalone="no"?>
<!DOCTYPE svg PUBLIC "-//W3C//DTD SVG 20010904//EN"
 "http://www.w3.org/TR/2001/REC-SVG-20010904/DTD/svg10.dtd">
<svg version="1.0" xmlns="http://www.w3.org/2000/svg"
 width="100.000000pt" height="137.000000pt" viewBox="0 0 100.000000 137.000000"
 preserveAspectRatio="xMidYMid meet">

<g transform="translate(0.000000,137.000000) scale(0.100000,-0.100000)"
fill="#fdfefe" stroke="none">
<path d="M465 1360 c-162 -15 -313 -90 -356 -177 -21 -43 -24 -61 -23 -168 0
-116 2 -124 48 -260 26 -77 51 -160 55 -185 l6 -45 31 55 c17 30 42 81 54 113
l24 57 25 -23 c71 -65 117 -81 142 -50 13 15 12 15 -8 4 -64 -34 -162 103
-139 194 8 30 40 65 60 65 8 0 28 -11 45 -26 16 -14 34 -25 38 -25 15 1 48
-12 53 -20 11 -17 -11 -219 -34 -314 -29 -116 -28 -119 57 -196 l51 -45 -12
-45 c-11 -43 -26 -143 -18 -124 2 6 12 36 21 67 10 32 23 62 30 68 9 7 35 0
90 -27 92 -43 162 -53 219 -29 38 16 38 17 31 54 -4 20 -10 87 -14 147 -5 90
-3 112 8 121 13 10 13 17 -1 52 l-16 41 28 10 c45 15 45 40 0 117 -43 75 -48
95 -25 114 20 17 19 30 -14 141 l-28 96 20 39 c37 72 39 93 11 121 -74 74
-234 103 -459 83z m95 -36 c23 -9 39 -18 37 -20 -2 -2 -25 5 -53 16 -27 10
-43 19 -37 20 7 0 31 -7 53 -16z m200 -4 c21 -11 42 -25 46 -31 4 -8 3 -9 -4
-5 -8 5 -10 -3 -7 -26 l6 -33 -13 35 c-7 19 -28 45 -47 57 -42 28 -33 30 19 3z
m-71 -16 c17 -14 31 -31 31 -37 0 -7 -7 -3 -15 7 -8 11 -27 28 -42 38 -16 10
-23 18 -16 18 6 0 25 -12 42 -26z m201 -91 c-11 -17 -11 -17 -6 0 3 10 6 24 7
30 0 9 2 9 5 0 3 -7 0 -20 -6 -30z m-86 -73 c36 -11 69 -26 73 -33 13 -21 52
-161 53 -189 0 -15 -4 -30 -10 -33 -19 -12 -10 -50 26 -122 23 -45 34 -78 30
-89 -5 -13 -9 -15 -18 -6 -7 7 -33 12 -59 12 -37 0 -49 4 -52 18 -4 15 -5 15
-6 0 0 -9 4 -20 9 -23 17 -10 11 -23 -14 -29 -18 -4 -30 -21 -47 -62 l-24 -56
-8 38 c-6 30 -26 57 -84 116 l-76 77 6 74 c9 101 18 120 75 155 64 39 73 70
35 120 -15 21 -32 40 -37 44 -23 16 65 7 128 -12z"/>
<path d="M778 929 c-21 -11 -38 -20 -38 -22 0 -1 23 0 51 2 29 2 62 -2 75 -9
12 -7 30 -10 39 -6 30 11 -4 34 -75 51 -8 2 -32 -5 -52 -16z"/>
<path d="M797 881 c-18 -6 -18 -8 -2 -21 13 -10 15 -11 13 0 -2 7 2 14 9 17 7
3 10 -3 6 -15 -3 -12 1 -22 11 -25 10 -4 13 -1 9 8 -3 8 2 18 11 21 9 3 16 10
16 15 0 11 -47 11 -73 0z"/>
<path d="M350 891 c-16 -31 -12 -35 9 -10 19 23 21 23 38 6 16 -16 16 -19 0
-46 -9 -16 -17 -36 -17 -44 0 -20 47 -57 71 -57 24 0 24 6 -1 37 -13 16 -20
41 -20 67 0 23 -5 47 -12 54 -18 18 -56 14 -68 -7z"/>
<path d="M387 739 c12 -12 25 -20 28 -17 3 3 -7 13 -22 23 l-28 17 22 -23z"/>
<path d="M108 416 c-29 -58 -28 -66 9 -66 39 0 113 -44 193 -114 41 -36 109
-96 151 -134 42 -37 92 -76 110 -86 l34 -19 -26 29 c-14 16 -60 81 -102 145
-81 124 -156 201 -244 251 -29 16 -56 34 -59 39 -14 24 -41 6 -66 -45z"/>
<path d="M31 296 c-24 -13 -23 -14 35 -26 91 -19 172 -63 334 -184 8 -6 1 5
-15 24 -77 91 -241 200 -300 199 -16 0 -41 -6 -54 -13z"/>
</g>
</svg>
